# xmcd
#
# Track frame offsets:
# 150
# 19152
# 38764
# 65452
# 94511
#
# Disc length: 1604 seconds
#
# Revision: 1
# Processed by: cddbd v1.5.1PL0 Copyright (c) Steve Scherf et al.
# Submitted via: Easy CD Ripper v2.35
#
DISCID=34064205
DTITLE=TLC - Ani't to Proud To Beg
DYEAR=1993
DGENRE=Blues
TTITLE0=Ani't to Proud To Beg - US 7" - TLC
TTITLE1=Ani't to Proud To Beg - Skratch - TLC
TTITLE2=Ani't to Proud To Beg -Smoothed - TLC
TTITLE3=Ani't to Proud To Beg - ben - TLC
TTITLE4=Ani't to Proud To Beg - lefteye - TLC
EXTD=
EXTT0=
EXTT1=
EXTT2=
EXTT3=
EXTT4=
PLAYORDER=
